<svg width="221" height="48" viewBox="0 0 221 48" fill="none" xmlns="http://www.w3.org/2000/svg">
<path d="M16 19C16 20.3261 15.4732 21.5979 14.5355 22.5355C13.5979 23.4732 12.3261 24 11 24C9.67392 24 8.40215 23.4732 7.46447 22.5355C6.52678 21.5979 6 20.3261 6 19C6 17.6739 6.52678 16.4021 7.46447 15.4645C8.40215 14.5268 9.67392 14 11 14C12.3261 14 13.5979 14.5268 14.5355 15.4645C15.4732 16.4021 16 17.6739 16 19ZM11 25C13.396 25 15.575 25.694 17.178 26.672C17.978 27.16 18.662 27.736 19.156 28.362C19.642 28.977 20 29.713 20 30.5C20 31.345 19.589 32.011 18.997 32.486C18.437 32.936 17.698 33.234 16.913 33.442C15.335 33.859 13.229 34 11 34C8.771 34 6.665 33.86 5.087 33.442C4.302 33.234 3.563 32.936 3.003 32.486C2.41 32.01 2 31.345 2 30.5C2 29.713 2.358 28.977 2.844 28.361C3.338 27.736 4.021 27.161 4.822 26.671C6.425 25.695 8.605 25 11 25ZM21 25C21.2549 25.0003 21.5 25.0979 21.6854 25.2728C21.8707 25.4478 21.9822 25.687 21.9972 25.9414C22.0121 26.1958 21.9293 26.4464 21.7657 26.6418C21.6021 26.8373 21.3701 26.9629 21.117 26.993L21 27H20C19.7451 26.9997 19.5 26.9021 19.3146 26.7272C19.1293 26.5522 19.0178 26.313 19.0028 26.0586C18.9879 25.8042 19.0707 25.5536 19.2343 25.3582C19.3979 25.1627 19.6299 25.0371 19.883 25.007L20 25H21ZM18 23C18 22.7348 18.1054 22.4804 18.2929 22.2929C18.4804 22.1054 18.7348 22 19 22H21C21.2652 22 21.5196 22.1054 21.7071 22.2929C21.8946 22.4804 22 22.7348 22 23C22 23.2652 21.8946 23.5196 21.7071 23.7071C21.5196 23.8946 21.2652 24 21 24H19C18.7348 24 18.4804 23.8946 18.2929 23.7071C18.1054 23.5196 18 23.2652 18 23ZM18 19C17.7348 19 17.4804 19.1054 17.2929 19.2929C17.1054 19.4804 17 19.7348 17 20C17 20.2652 17.1054 20.5196 17.2929 20.7071C17.4804 20.8946 17.7348 21 18 21H21C21.2652 21 21.5196 20.8946 21.7071 20.7071C21.8946 20.5196 22 20.2652 22 20C22 19.7348 21.8946 19.4804 21.7071 19.2929C21.5196 19.1054 21.2652 19 21 19H18Z" fill="#343330"/>
<path d="M47.362 30.716C45.526 30.716 43.966 30.08 42.682 28.808C41.398 27.524 40.756 25.958 40.756 24.11C40.756 22.262 41.398 20.702 42.682 19.43C43.966 18.146 45.526 17.504 47.362 17.504C48.598 17.504 49.72 17.798 50.728 18.386C51.736 18.962 52.534 19.748 53.122 20.744L51.304 21.788C50.38 20.288 49.066 19.538 47.362 19.538C46.102 19.538 45.04 19.982 44.176 20.87C43.312 21.758 42.88 22.838 42.88 24.11C42.88 25.382 43.312 26.462 44.176 27.35C45.04 28.238 46.102 28.682 47.362 28.682C49.066 28.682 50.38 27.932 51.304 26.432L53.122 27.476C52.534 28.472 51.736 29.264 50.728 29.852C49.72 30.428 48.598 30.716 47.362 30.716ZM62.3183 29.33C61.4183 30.23 60.3023 30.68 58.9703 30.68C57.6383 30.68 56.5163 30.23 55.6043 29.33C54.7043 28.418 54.2543 27.308 54.2543 26C54.2543 24.692 54.7043 23.588 55.6043 22.688C56.5163 21.776 57.6383 21.32 58.9703 21.32C60.3023 21.32 61.4183 21.776 62.3183 22.688C63.2303 23.588 63.6863 24.692 63.6863 26C63.6863 27.308 63.2303 28.418 62.3183 29.33ZM58.9703 28.844C59.7503 28.844 60.3923 28.574 60.8963 28.034C61.4123 27.482 61.6703 26.804 61.6703 26C61.6703 25.196 61.4123 24.524 60.8963 23.984C60.3923 23.432 59.7503 23.156 58.9703 23.156C58.1783 23.156 57.5243 23.432 57.0083 23.984C56.5043 24.524 56.2523 25.196 56.2523 26C56.2523 26.804 56.5043 27.482 57.0083 28.034C57.5243 28.574 58.1783 28.844 58.9703 28.844ZM65.6777 30.5V21.5H67.6577V22.724C68.2217 21.788 69.1337 21.32 70.3937 21.32C71.4377 21.32 72.2717 21.662 72.8957 22.346C73.5197 23.03 73.8317 23.942 73.8317 25.082V30.5H71.8517V25.406C71.8517 24.686 71.6837 24.128 71.3477 23.732C71.0117 23.324 70.5557 23.12 69.9797 23.12C69.2957 23.12 68.7377 23.378 68.3057 23.894C67.8737 24.41 67.6577 25.136 67.6577 26.072V30.5H65.6777ZM80.1657 30.59C79.2537 30.59 78.5097 30.338 77.9337 29.834C77.3697 29.318 77.0877 28.574 77.0877 27.602V23.264H75.2157V21.5H77.0877V18.998H79.0677V21.5H81.6417V23.264H79.0677V27.278C79.0677 27.83 79.1877 28.226 79.4277 28.466C79.6677 28.694 80.0517 28.808 80.5797 28.808C81.0117 28.808 81.3657 28.748 81.6417 28.628V30.392C81.2097 30.524 80.7177 30.59 80.1657 30.59ZM87.0865 30.68C85.8625 30.68 84.8305 30.224 83.9905 29.312C83.1625 28.4 82.7485 27.296 82.7485 26C82.7485 24.704 83.1625 23.6 83.9905 22.688C84.8305 21.776 85.8625 21.32 87.0865 21.32C87.6985 21.32 88.2625 21.458 88.7785 21.734C89.2945 21.998 89.6905 22.322 89.9665 22.706V21.5H91.9465V30.5H89.9665V29.294C89.6905 29.678 89.2945 30.008 88.7785 30.284C88.2625 30.548 87.6985 30.68 87.0865 30.68ZM85.5205 28.052C86.0245 28.604 86.6665 28.88 87.4465 28.88C88.2265 28.88 88.8685 28.604 89.3725 28.052C89.8765 27.5 90.1285 26.816 90.1285 26C90.1285 25.184 89.8765 24.5 89.3725 23.948C88.8685 23.396 88.2265 23.12 87.4465 23.12C86.6665 23.12 86.0245 23.396 85.5205 23.948C85.0165 24.5 84.7645 25.184 84.7645 26C84.7645 26.816 85.0165 27.5 85.5205 28.052ZM98.7329 30.68C97.3769 30.68 96.2429 30.236 95.3309 29.348C94.4309 28.448 93.9809 27.332 93.9809 26C93.9809 24.668 94.4309 23.558 95.3309 22.67C96.2429 21.77 97.3769 21.32 98.7329 21.32C99.6569 21.32 100.485 21.542 101.217 21.986C101.961 22.43 102.531 23.036 102.927 23.804L101.199 24.74C100.971 24.26 100.641 23.876 100.209 23.588C99.7769 23.3 99.2849 23.156 98.7329 23.156C97.9409 23.156 97.2869 23.432 96.7709 23.984C96.2549 24.524 95.9969 25.196 95.9969 26C95.9969 26.804 96.2549 27.482 96.7709 28.034C97.2869 28.574 97.9409 28.844 98.7329 28.844C99.2849 28.844 99.7769 28.7 100.209 28.412C100.641 28.124 100.971 27.74 101.199 27.26L102.927 28.196C102.531 28.964 101.961 29.57 101.217 30.014C100.485 30.458 99.6569 30.68 98.7329 30.68ZM108.642 30.59C107.73 30.59 106.986 30.338 106.41 29.834C105.846 29.318 105.564 28.574 105.564 27.602V23.264H103.692V21.5H105.564V18.998H107.544V21.5H110.118V23.264H107.544V27.278C107.544 27.83 107.664 28.226 107.904 28.466C108.144 28.694 108.528 28.808 109.056 28.808C109.488 28.808 109.842 28.748 110.118 28.628V30.392C109.686 30.524 109.194 30.59 108.642 30.59ZM123.72 18.926C124.548 19.718 124.962 20.708 124.962 21.896C124.962 23.084 124.548 24.08 123.72 24.884C122.892 25.676 121.83 26.072 120.534 26.072H118.572V30.5H116.466V17.72H120.534C121.83 17.72 122.892 18.122 123.72 18.926ZM122.244 23.48C122.676 23.06 122.892 22.532 122.892 21.896C122.892 21.26 122.676 20.738 122.244 20.33C121.824 19.91 121.248 19.7 120.516 19.7H118.572V24.092H120.516C121.248 24.092 121.824 23.888 122.244 23.48ZM130.566 30.68C129.198 30.68 128.07 30.242 127.182 29.366C126.306 28.49 125.868 27.368 125.868 26C125.868 24.668 126.312 23.558 127.2 22.67C128.088 21.77 129.21 21.32 130.566 21.32C131.814 21.32 132.846 21.716 133.662 22.508C134.49 23.3 134.904 24.392 134.904 25.784C134.904 26.024 134.898 26.24 134.886 26.432H127.812C127.86 27.164 128.142 27.758 128.658 28.214C129.174 28.658 129.816 28.88 130.584 28.88C131.736 28.88 132.594 28.424 133.158 27.512L134.67 28.592C133.806 29.984 132.438 30.68 130.566 30.68ZM127.902 24.992H132.906C132.798 24.368 132.516 23.882 132.06 23.534C131.616 23.174 131.094 22.994 130.494 22.994C129.87 22.994 129.312 23.168 128.82 23.516C128.34 23.864 128.034 24.356 127.902 24.992ZM136.939 30.5V21.5H138.919V23.102C139.087 22.598 139.393 22.19 139.837 21.878C140.293 21.566 140.779 21.41 141.295 21.41C141.607 21.41 141.865 21.434 142.069 21.482V23.516C141.781 23.408 141.451 23.354 141.079 23.354C140.479 23.354 139.969 23.6 139.549 24.092C139.129 24.572 138.919 25.244 138.919 26.108V30.5H136.939ZM146.464 30.68C145.636 30.68 144.904 30.524 144.268 30.212C143.632 29.888 143.158 29.408 142.846 28.772L144.304 27.728C144.484 28.112 144.772 28.418 145.168 28.646C145.564 28.862 145.996 28.97 146.464 28.97C146.836 28.97 147.142 28.886 147.382 28.718C147.634 28.55 147.76 28.316 147.76 28.016C147.76 27.752 147.658 27.536 147.454 27.368C147.262 27.2 146.902 27.032 146.374 26.864L145.582 26.648C143.986 26.216 143.2 25.298 143.224 23.894C143.224 23.114 143.53 22.49 144.142 22.022C144.754 21.554 145.522 21.32 146.446 21.32C147.838 21.32 148.852 21.83 149.488 22.85L148.12 23.894C147.664 23.282 147.094 22.976 146.41 22.976C146.086 22.976 145.804 23.054 145.564 23.21C145.324 23.354 145.204 23.558 145.204 23.822C145.204 24.062 145.282 24.266 145.438 24.434C145.594 24.602 145.876 24.752 146.284 24.884L147.202 25.154C148.042 25.406 148.672 25.748 149.092 26.18C149.512 26.6 149.722 27.17 149.722 27.89C149.722 28.742 149.416 29.42 148.804 29.924C148.192 30.428 147.412 30.68 146.464 30.68ZM159.191 29.33C158.291 30.23 157.175 30.68 155.843 30.68C154.511 30.68 153.389 30.23 152.477 29.33C151.577 28.418 151.127 27.308 151.127 26C151.127 24.692 151.577 23.588 152.477 22.688C153.389 21.776 154.511 21.32 155.843 21.32C157.175 21.32 158.291 21.776 159.191 22.688C160.103 23.588 160.559 24.692 160.559 26C160.559 27.308 160.103 28.418 159.191 29.33ZM155.843 28.844C156.623 28.844 157.265 28.574 157.769 28.034C158.285 27.482 158.543 26.804 158.543 26C158.543 25.196 158.285 24.524 157.769 23.984C157.265 23.432 156.623 23.156 155.843 23.156C155.051 23.156 154.397 23.432 153.881 23.984C153.377 24.524 153.125 25.196 153.125 26C153.125 26.804 153.377 27.482 153.881 28.034C154.397 28.574 155.051 28.844 155.843 28.844ZM162.551 30.5V21.5H164.531V22.724C165.095 21.788 166.007 21.32 167.267 21.32C168.311 21.32 169.145 21.662 169.769 22.346C170.393 23.03 170.705 23.942 170.705 25.082V30.5H168.725V25.406C168.725 24.686 168.557 24.128 168.221 23.732C167.885 23.324 167.429 23.12 166.853 23.12C166.169 23.12 165.611 23.378 165.179 23.894C164.747 24.41 164.531 25.136 164.531 26.072V30.5H162.551ZM176.1 30.68C175.272 30.68 174.54 30.524 173.904 30.212C173.268 29.888 172.794 29.408 172.482 28.772L173.94 27.728C174.12 28.112 174.408 28.418 174.804 28.646C175.2 28.862 175.632 28.97 176.1 28.97C176.472 28.97 176.778 28.886 177.018 28.718C177.27 28.55 177.396 28.316 177.396 28.016C177.396 27.752 177.294 27.536 177.09 27.368C176.898 27.2 176.538 27.032 176.01 26.864L175.218 26.648C173.622 26.216 172.836 25.298 172.86 23.894C172.86 23.114 173.166 22.49 173.778 22.022C174.39 21.554 175.158 21.32 176.082 21.32C177.474 21.32 178.488 21.83 179.124 22.85L177.756 23.894C177.3 23.282 176.73 22.976 176.046 22.976C175.722 22.976 175.44 23.054 175.2 23.21C174.96 23.354 174.84 23.558 174.84 23.822C174.84 24.062 174.918 24.266 175.074 24.434C175.23 24.602 175.512 24.752 175.92 24.884L176.838 25.154C177.678 25.406 178.308 25.748 178.728 26.18C179.148 26.6 179.358 27.17 179.358 27.89C179.358 28.742 179.052 29.42 178.44 29.924C177.828 30.428 177.048 30.68 176.1 30.68Z" fill="#27272A"/>
</svg>
