<svg width="105" height="24" viewBox="0 0 105 24" fill="none" xmlns="http://www.w3.org/2000/svg">
<path d="M5.84585 12L20.2461 12" stroke="white" stroke-width="1.8" stroke-linecap="square"/>
<path d="M11.2969 5.97444L5.24688 11.9984L11.2969 18.0234" stroke="white" stroke-width="1.8" stroke-linecap="square"/>
<path d="M39.2101 18.192C37.5888 18.192 36.2021 17.6213 35.0501 16.48C33.9088 15.328 33.3381 13.9413 33.3381 12.32C33.3381 10.6987 33.9088 9.31733 35.0501 8.176C36.2021 7.024 37.5888 6.448 39.2101 6.448C40.3408 6.448 41.3754 6.72533 42.3141 7.28C43.2528 7.824 43.9674 8.55467 44.4581 9.472L42.4421 10.592C41.6954 9.32267 40.6181 8.688 39.2101 8.688C38.2288 8.688 37.3914 9.04533 36.6981 9.76C36.0154 10.464 35.6741 11.3173 35.6741 12.32C35.6741 13.3227 36.0154 14.1813 36.6981 14.896C37.3914 15.6 38.2288 15.952 39.2101 15.952C40.6181 15.952 41.6954 15.3173 42.4421 14.048L44.4581 15.168C43.9674 16.096 43.2581 16.832 42.3301 17.376C41.4021 17.92 40.3621 18.192 39.2101 18.192ZM49.097 18.176C48.041 18.176 47.1503 17.7653 46.425 16.944C45.6996 16.1227 45.337 15.1413 45.337 14C45.337 12.8587 45.6996 11.8773 46.425 11.056C47.1503 10.2347 48.041 9.824 49.097 9.824C49.609 9.824 50.0676 9.93067 50.473 10.144C50.8783 10.3573 51.1876 10.608 51.401 10.896V10H53.593V18H51.401V17.104C51.1876 17.392 50.8783 17.6427 50.473 17.856C50.0676 18.0693 49.609 18.176 49.097 18.176ZM48.089 15.568C48.4623 15.9733 48.953 16.176 49.561 16.176C50.169 16.176 50.6543 15.9733 51.017 15.568C51.3903 15.1627 51.577 14.64 51.577 14C51.577 13.36 51.3903 12.8373 51.017 12.432C50.6543 12.0267 50.169 11.824 49.561 11.824C48.953 11.824 48.4623 12.0267 48.089 12.432C47.7263 12.8373 47.545 13.36 47.545 14C47.545 14.64 47.7263 15.1627 48.089 15.568ZM55.724 18V6H57.916V18H55.724ZM63.7488 18.176C62.5328 18.176 61.5195 17.792 60.7088 17.024C59.9088 16.256 59.5088 15.248 59.5088 14C59.5088 12.8053 59.9088 11.8133 60.7088 11.024C61.5088 10.224 62.5115 9.824 63.7168 9.824C64.8262 9.824 65.7595 10.1707 66.5168 10.864C67.2742 11.5467 67.6528 12.512 67.6528 13.76C67.6528 14.112 67.6422 14.3627 67.6208 14.512H61.6368C61.7008 15.0347 61.9302 15.4453 62.3248 15.744C62.7302 16.032 63.2102 16.176 63.7648 16.176C64.7035 16.176 65.3915 15.84 65.8288 15.168L67.4608 16.384C66.6395 17.5787 65.4022 18.176 63.7488 18.176ZM61.7168 13.024H65.4608C65.3648 12.5653 65.1462 12.2187 64.8048 11.984C64.4742 11.7493 64.0902 11.632 63.6528 11.632C63.2048 11.632 62.7942 11.7493 62.4208 11.984C62.0475 12.2187 61.8128 12.5653 61.7168 13.024ZM69.2708 18V10H71.4628V10.912C71.9535 10.1867 72.7162 9.824 73.7508 9.824C74.7108 9.824 75.4628 10.144 76.0068 10.784C76.5615 11.4133 76.8388 12.256 76.8388 13.312V18H74.6468V13.68C74.6468 13.0933 74.5242 12.64 74.2788 12.32C74.0335 11.9893 73.6868 11.824 73.2388 11.824C72.7055 11.824 72.2735 12.016 71.9428 12.4C71.6228 12.784 71.4628 13.3493 71.4628 14.096V18H69.2708ZM82.097 18.176C81.041 18.176 80.1503 17.7653 79.425 16.944C78.6996 16.1227 78.337 15.1413 78.337 14C78.337 12.8587 78.6996 11.8773 79.425 11.056C80.1503 10.2347 81.041 9.824 82.097 9.824C82.609 9.824 83.0676 9.93067 83.473 10.144C83.8783 10.3573 84.1876 10.608 84.401 10.896V6H86.593V18H84.401V17.104C84.1876 17.392 83.8783 17.6427 83.473 17.856C83.0676 18.0693 82.609 18.176 82.097 18.176ZM81.089 15.568C81.4623 15.9733 81.953 16.176 82.561 16.176C83.169 16.176 83.6543 15.9733 84.017 15.568C84.3903 15.1627 84.577 14.64 84.577 14C84.577 13.36 84.3903 12.8373 84.017 12.432C83.6543 12.0267 83.169 11.824 82.561 11.824C81.953 11.824 81.4623 12.0267 81.089 12.432C80.7263 12.8373 80.545 13.36 80.545 14C80.545 14.64 80.7263 15.1627 81.089 15.568ZM91.972 18.176C90.916 18.176 90.0253 17.7653 89.3 16.944C88.5746 16.1227 88.212 15.1413 88.212 14C88.212 12.8587 88.5746 11.8773 89.3 11.056C90.0253 10.2347 90.916 9.824 91.972 9.824C92.484 9.824 92.9426 9.93067 93.348 10.144C93.7533 10.3573 94.0626 10.608 94.276 10.896V10H96.468V18H94.276V17.104C94.0626 17.392 93.7533 17.6427 93.348 17.856C92.9426 18.0693 92.484 18.176 91.972 18.176ZM90.964 15.568C91.3373 15.9733 91.828 16.176 92.436 16.176C93.044 16.176 93.5293 15.9733 93.892 15.568C94.2653 15.1627 94.452 14.64 94.452 14C94.452 13.36 94.2653 12.8373 93.892 12.432C93.5293 12.0267 93.044 11.824 92.436 11.824C91.828 11.824 91.3373 12.0267 90.964 12.432C90.6013 12.8373 90.42 13.36 90.42 14C90.42 14.64 90.6013 15.1627 90.964 15.568ZM98.599 18V10H100.791V11.28C100.93 10.8853 101.18 10.56 101.543 10.304C101.916 10.0373 102.327 9.904 102.775 9.904C103.052 9.904 103.298 9.936 103.511 10V12.224C103.159 12.1067 102.828 12.048 102.519 12.048C101.996 12.048 101.575 12.24 101.255 12.624C100.946 12.9973 100.791 13.5147 100.791 14.176V18H98.599Z" fill="white"/>
</svg>
