<svg width="194" height="48" viewBox="0 0 194 48" fill="none" xmlns="http://www.w3.org/2000/svg">
<path d="M19.5 19.5H16.5V17.25C16.5 16.0565 16.0259 14.9119 15.182 14.068C14.3381 13.2241 13.1935 12.75 12 12.75C10.8065 12.75 9.66193 13.2241 8.81802 14.068C7.97411 14.9119 7.5 16.0565 7.5 17.25V19.5H4.5C4.10218 19.5 3.72064 19.658 3.43934 19.9393C3.15804 20.2206 3 20.6022 3 21V31.5C3 31.8978 3.15804 32.2794 3.43934 32.5607C3.72064 32.842 4.10218 33 4.5 33H19.5C19.8978 33 20.2794 32.842 20.5607 32.5607C20.842 32.2794 21 31.8978 21 31.5V21C21 20.6022 20.842 20.2206 20.5607 19.9393C20.2794 19.658 19.8978 19.5 19.5 19.5ZM12.75 26.8716V29.25C12.75 29.4489 12.671 29.6397 12.5303 29.7803C12.3897 29.921 12.1989 30 12 30C11.8011 30 11.6103 29.921 11.4697 29.7803C11.329 29.6397 11.25 29.4489 11.25 29.25V26.8716C10.7496 26.6946 10.3278 26.3465 10.0593 25.8887C9.79072 25.4309 9.69265 24.8929 9.7824 24.3698C9.87216 23.8466 10.144 23.3721 10.5498 23.03C10.9556 22.6879 11.4692 22.5002 12 22.5002C12.5308 22.5002 13.0444 22.6879 13.4502 23.03C13.856 23.3721 14.1278 23.8466 14.2176 24.3698C14.3073 24.8929 14.2093 25.4309 13.9407 25.8887C13.6722 26.3465 13.2504 26.6946 12.75 26.8716ZM15 19.5H9V17.25C9 16.4544 9.31607 15.6913 9.87868 15.1287C10.4413 14.5661 11.2044 14.25 12 14.25C12.7956 14.25 13.5587 14.5661 14.1213 15.1287C14.6839 15.6913 15 16.4544 15 17.25V19.5Z" fill="#343330"/>
<path d="M47.362 30.716C45.526 30.716 43.966 30.08 42.682 28.808C41.398 27.524 40.756 25.958 40.756 24.11C40.756 22.262 41.398 20.702 42.682 19.43C43.966 18.146 45.526 17.504 47.362 17.504C48.598 17.504 49.72 17.798 50.728 18.386C51.736 18.962 52.534 19.748 53.122 20.744L51.304 21.788C50.38 20.288 49.066 19.538 47.362 19.538C46.102 19.538 45.04 19.982 44.176 20.87C43.312 21.758 42.88 22.838 42.88 24.11C42.88 25.382 43.312 26.462 44.176 27.35C45.04 28.238 46.102 28.682 47.362 28.682C49.066 28.682 50.38 27.932 51.304 26.432L53.122 27.476C52.534 28.472 51.736 29.264 50.728 29.852C49.72 30.428 48.598 30.716 47.362 30.716ZM56.8823 30.5H54.9023V17H56.8823V22.724C57.4463 21.788 58.3583 21.32 59.6183 21.32C60.6623 21.32 61.4963 21.662 62.1203 22.346C62.7443 23.03 63.0563 23.942 63.0563 25.082V30.5H61.0763V25.406C61.0763 24.686 60.9083 24.128 60.5723 23.732C60.2363 23.324 59.7803 23.12 59.2043 23.12C58.5203 23.12 57.9623 23.378 57.5303 23.894C57.0983 24.41 56.8823 25.136 56.8823 26.072V30.5ZM69.2798 30.68C68.0558 30.68 67.0238 30.224 66.1838 29.312C65.3558 28.4 64.9418 27.296 64.9418 26C64.9418 24.704 65.3558 23.6 66.1838 22.688C67.0238 21.776 68.0558 21.32 69.2798 21.32C69.8918 21.32 70.4558 21.458 70.9718 21.734C71.4878 21.998 71.8838 22.322 72.1598 22.706V21.5H74.1398V30.5H72.1598V29.294C71.8838 29.678 71.4878 30.008 70.9718 30.284C70.4558 30.548 69.8918 30.68 69.2798 30.68ZM67.7138 28.052C68.2178 28.604 68.8598 28.88 69.6398 28.88C70.4198 28.88 71.0618 28.604 71.5658 28.052C72.0698 27.5 72.3218 26.816 72.3218 26C72.3218 25.184 72.0698 24.5 71.5658 23.948C71.0618 23.396 70.4198 23.12 69.6398 23.12C68.8598 23.12 68.2178 23.396 67.7138 23.948C67.2098 24.5 66.9578 25.184 66.9578 26C66.9578 26.816 67.2098 27.5 67.7138 28.052ZM76.8222 30.5V21.5H78.8022V22.724C79.3662 21.788 80.2782 21.32 81.5382 21.32C82.5822 21.32 83.4162 21.662 84.0402 22.346C84.6642 23.03 84.9762 23.942 84.9762 25.082V30.5H82.9962V25.406C82.9962 24.686 82.8282 24.128 82.4922 23.732C82.1562 23.324 81.7002 23.12 81.1242 23.12C80.4402 23.12 79.8822 23.378 79.4502 23.894C79.0182 24.41 78.8022 25.136 78.8022 26.072V30.5H76.8222ZM89.6517 27.854C90.1677 28.37 90.8037 28.628 91.5597 28.628C92.3157 28.628 92.9517 28.37 93.4677 27.854C93.9837 27.326 94.2417 26.666 94.2417 25.874C94.2417 25.082 93.9837 24.428 93.4677 23.912C92.9517 23.384 92.3157 23.12 91.5597 23.12C90.8037 23.12 90.1677 23.384 89.6517 23.912C89.1357 24.428 88.8777 25.082 88.8777 25.874C88.8777 26.666 89.1357 27.326 89.6517 27.854ZM91.3797 34.442C90.5037 34.442 89.6937 34.292 88.9497 33.992C88.2057 33.704 87.6117 33.302 87.1677 32.786L88.3737 31.364C89.1777 32.24 90.1737 32.678 91.3617 32.678C92.1417 32.678 92.7897 32.426 93.3057 31.922C93.8217 31.43 94.0797 30.746 94.0797 29.87V29.042C93.7917 29.45 93.3897 29.786 92.8737 30.05C92.3577 30.314 91.7997 30.446 91.1997 30.446C89.9877 30.446 88.9617 30.008 88.1217 29.132C87.2937 28.244 86.8797 27.158 86.8797 25.874C86.8797 24.602 87.2937 23.528 88.1217 22.652C88.9617 21.764 89.9877 21.32 91.1997 21.32C91.7997 21.32 92.3577 21.452 92.8737 21.716C93.3897 21.968 93.7917 22.298 94.0797 22.706V21.5H96.0597V29.888C96.0597 31.388 95.6277 32.522 94.7637 33.29C93.9117 34.058 92.7837 34.442 91.3797 34.442ZM102.793 30.68C101.425 30.68 100.297 30.242 99.4086 29.366C98.5326 28.49 98.0946 27.368 98.0946 26C98.0946 24.668 98.5386 23.558 99.4266 22.67C100.315 21.77 101.437 21.32 102.793 21.32C104.041 21.32 105.073 21.716 105.889 22.508C106.717 23.3 107.131 24.392 107.131 25.784C107.131 26.024 107.125 26.24 107.113 26.432H100.039C100.087 27.164 100.369 27.758 100.885 28.214C101.401 28.658 102.043 28.88 102.811 28.88C103.963 28.88 104.821 28.424 105.385 27.512L106.897 28.592C106.033 29.984 104.665 30.68 102.793 30.68ZM100.129 24.992H105.133C105.025 24.368 104.743 23.882 104.287 23.534C103.843 23.174 103.321 22.994 102.721 22.994C102.097 22.994 101.539 23.168 101.047 23.516C100.567 23.864 100.261 24.356 100.129 24.992ZM115.382 34.262H113.402V21.5H115.382V22.706C115.658 22.322 116.054 21.998 116.57 21.734C117.098 21.458 117.668 21.32 118.28 21.32C119.504 21.32 120.53 21.776 121.358 22.688C122.198 23.6 122.618 24.704 122.618 26C122.618 27.296 122.198 28.4 121.358 29.312C120.53 30.224 119.504 30.68 118.28 30.68C117.668 30.68 117.098 30.548 116.57 30.284C116.054 30.008 115.658 29.678 115.382 29.294V34.262ZM117.92 28.88C118.7 28.88 119.342 28.604 119.846 28.052C120.35 27.5 120.602 26.816 120.602 26C120.602 25.184 120.35 24.5 119.846 23.948C119.342 23.396 118.7 23.12 117.92 23.12C117.128 23.12 116.48 23.396 115.976 23.948C115.472 24.5 115.22 25.184 115.22 26C115.22 26.816 115.472 27.5 115.976 28.052C116.48 28.604 117.128 28.88 117.92 28.88ZM128.325 30.68C127.101 30.68 126.069 30.224 125.229 29.312C124.401 28.4 123.987 27.296 123.987 26C123.987 24.704 124.401 23.6 125.229 22.688C126.069 21.776 127.101 21.32 128.325 21.32C128.937 21.32 129.501 21.458 130.017 21.734C130.533 21.998 130.929 22.322 131.205 22.706V21.5H133.185V30.5H131.205V29.294C130.929 29.678 130.533 30.008 130.017 30.284C129.501 30.548 128.937 30.68 128.325 30.68ZM126.759 28.052C127.263 28.604 127.905 28.88 128.685 28.88C129.465 28.88 130.107 28.604 130.611 28.052C131.115 27.5 131.367 26.816 131.367 26C131.367 25.184 131.115 24.5 130.611 23.948C130.107 23.396 129.465 23.12 128.685 23.12C127.905 23.12 127.263 23.396 126.759 23.948C126.255 24.5 126.003 25.184 126.003 26C126.003 26.816 126.255 27.5 126.759 28.052ZM138.729 30.68C137.901 30.68 137.169 30.524 136.533 30.212C135.897 29.888 135.423 29.408 135.111 28.772L136.569 27.728C136.749 28.112 137.037 28.418 137.433 28.646C137.829 28.862 138.261 28.97 138.729 28.97C139.101 28.97 139.407 28.886 139.647 28.718C139.899 28.55 140.025 28.316 140.025 28.016C140.025 27.752 139.923 27.536 139.719 27.368C139.527 27.2 139.167 27.032 138.639 26.864L137.847 26.648C136.251 26.216 135.465 25.298 135.489 23.894C135.489 23.114 135.795 22.49 136.407 22.022C137.019 21.554 137.787 21.32 138.711 21.32C140.103 21.32 141.117 21.83 141.753 22.85L140.385 23.894C139.929 23.282 139.359 22.976 138.675 22.976C138.351 22.976 138.069 23.054 137.829 23.21C137.589 23.354 137.469 23.558 137.469 23.822C137.469 24.062 137.547 24.266 137.703 24.434C137.859 24.602 138.141 24.752 138.549 24.884L139.467 25.154C140.307 25.406 140.937 25.748 141.357 26.18C141.777 26.6 141.987 27.17 141.987 27.89C141.987 28.742 141.681 29.42 141.069 29.924C140.457 30.428 139.677 30.68 138.729 30.68ZM146.903 30.68C146.075 30.68 145.343 30.524 144.707 30.212C144.071 29.888 143.597 29.408 143.285 28.772L144.743 27.728C144.923 28.112 145.211 28.418 145.607 28.646C146.003 28.862 146.435 28.97 146.903 28.97C147.275 28.97 147.581 28.886 147.821 28.718C148.073 28.55 148.199 28.316 148.199 28.016C148.199 27.752 148.097 27.536 147.893 27.368C147.701 27.2 147.341 27.032 146.813 26.864L146.021 26.648C144.425 26.216 143.639 25.298 143.663 23.894C143.663 23.114 143.969 22.49 144.581 22.022C145.193 21.554 145.961 21.32 146.885 21.32C148.277 21.32 149.291 21.83 149.927 22.85L148.559 23.894C148.103 23.282 147.533 22.976 146.849 22.976C146.525 22.976 146.243 23.054 146.003 23.21C145.763 23.354 145.643 23.558 145.643 23.822C145.643 24.062 145.721 24.266 145.877 24.434C146.033 24.602 146.315 24.752 146.723 24.884L147.641 25.154C148.481 25.406 149.111 25.748 149.531 26.18C149.951 26.6 150.161 27.17 150.161 27.89C150.161 28.742 149.855 29.42 149.243 29.924C148.631 30.428 147.851 30.68 146.903 30.68ZM159.83 30.5L157.85 24.686L155.888 30.5H154.016L150.992 21.5H153.08L155.024 27.71L157.094 21.5H158.606L160.64 27.71L162.62 21.5H164.726L161.702 30.5H159.83ZM173.553 29.33C172.653 30.23 171.537 30.68 170.205 30.68C168.873 30.68 167.751 30.23 166.839 29.33C165.939 28.418 165.489 27.308 165.489 26C165.489 24.692 165.939 23.588 166.839 22.688C167.751 21.776 168.873 21.32 170.205 21.32C171.537 21.32 172.653 21.776 173.553 22.688C174.465 23.588 174.921 24.692 174.921 26C174.921 27.308 174.465 28.418 173.553 29.33ZM170.205 28.844C170.985 28.844 171.627 28.574 172.131 28.034C172.647 27.482 172.905 26.804 172.905 26C172.905 25.196 172.647 24.524 172.131 23.984C171.627 23.432 170.985 23.156 170.205 23.156C169.413 23.156 168.759 23.432 168.243 23.984C167.739 24.524 167.487 25.196 167.487 26C167.487 26.804 167.739 27.482 168.243 28.034C168.759 28.574 169.413 28.844 170.205 28.844ZM176.912 30.5V21.5H178.892V23.102C179.06 22.598 179.366 22.19 179.81 21.878C180.266 21.566 180.752 21.41 181.268 21.41C181.58 21.41 181.838 21.434 182.042 21.482V23.516C181.754 23.408 181.424 23.354 181.052 23.354C180.452 23.354 179.942 23.6 179.522 24.092C179.102 24.572 178.892 25.244 178.892 26.108V30.5H176.912ZM187.141 30.68C185.917 30.68 184.885 30.224 184.045 29.312C183.217 28.4 182.803 27.296 182.803 26C182.803 24.704 183.217 23.6 184.045 22.688C184.885 21.776 185.917 21.32 187.141 21.32C187.753 21.32 188.317 21.458 188.833 21.734C189.349 21.998 189.745 22.322 190.021 22.706V17H192.001V30.5H190.021V29.294C189.745 29.678 189.349 30.008 188.833 30.284C188.317 30.548 187.753 30.68 187.141 30.68ZM185.575 28.052C186.079 28.604 186.721 28.88 187.501 28.88C188.281 28.88 188.923 28.604 189.427 28.052C189.931 27.5 190.183 26.816 190.183 26C190.183 25.184 189.931 24.5 189.427 23.948C188.923 23.396 188.281 23.12 187.501 23.12C186.721 23.12 186.079 23.396 185.575 23.948C185.071 24.5 184.819 25.184 184.819 26C184.819 26.816 185.071 27.5 185.575 28.052Z" fill="#27272A"/>
</svg>
