<svg width="253" height="48" viewBox="0 0 253 48" fill="none" xmlns="http://www.w3.org/2000/svg">
<path d="M19.5 15.75H4.5C4.10218 15.75 3.72064 15.908 3.43934 16.1893C3.15804 16.4706 3 16.8522 3 17.25V22.5C3 27.4425 5.3925 30.4378 7.39969 32.0803C9.56156 33.8484 11.7122 34.4484 11.8059 34.4738C11.9348 34.5088 12.0708 34.5088 12.1997 34.4738C12.2934 34.4484 14.4413 33.8484 16.6059 32.0803C18.6075 30.4378 21 27.4425 21 22.5V17.25C21 16.8522 20.842 16.4706 20.5607 16.1893C20.2794 15.908 19.8978 15.75 19.5 15.75ZM16.2825 22.2806L11.0325 27.5306C10.9628 27.6004 10.8801 27.6557 10.7891 27.6934C10.698 27.7312 10.6004 27.7506 10.5019 27.7506C10.4033 27.7506 10.3057 27.7312 10.2147 27.6934C10.1236 27.6557 10.0409 27.6004 9.97125 27.5306L7.72125 25.2806C7.58052 25.1399 7.50146 24.949 7.50146 24.75C7.50146 24.551 7.58052 24.3601 7.72125 24.2194C7.86198 24.0786 8.05285 23.9996 8.25187 23.9996C8.4509 23.9996 8.64177 24.0786 8.7825 24.2194L10.5 25.9397L15.2194 21.2194C15.2891 21.1497 15.3718 21.0944 15.4628 21.0567C15.5539 21.019 15.6515 20.9996 15.75 20.9996C15.8485 20.9996 15.9461 21.019 16.0372 21.0567C16.1282 21.0944 16.2109 21.1497 16.2806 21.2194C16.3503 21.2891 16.4056 21.3718 16.4433 21.4628C16.481 21.5539 16.5004 21.6515 16.5004 21.75C16.5004 21.8485 16.481 21.9461 16.4433 22.0372C16.4056 22.1282 16.3503 22.2109 16.2806 22.2806H16.2825Z" fill="#343330"/>
<path d="M49.288 28.556V30.5H40.828V29.78C40.828 29.324 40.894 28.892 41.026 28.484C41.17 28.064 41.32 27.716 41.476 27.44C41.632 27.164 41.89 26.858 42.25 26.522C42.61 26.174 42.886 25.928 43.078 25.784C43.27 25.628 43.606 25.376 44.086 25.028C44.578 24.68 44.89 24.458 45.022 24.362C45.778 23.81 46.324 23.324 46.66 22.904C46.996 22.484 47.164 21.98 47.164 21.392C47.164 20.804 46.984 20.336 46.624 19.988C46.264 19.628 45.766 19.448 45.13 19.448C44.47 19.448 43.924 19.646 43.492 20.042C43.06 20.426 42.838 20.954 42.826 21.626H40.828C40.828 20.414 41.236 19.424 42.052 18.656C42.88 17.888 43.912 17.504 45.148 17.504C46.288 17.504 47.242 17.84 48.01 18.512C48.778 19.184 49.162 20.126 49.162 21.338C49.162 22.298 48.94 23.108 48.496 23.768C48.064 24.416 47.344 25.1 46.336 25.82C46.18 25.94 45.892 26.144 45.472 26.432C45.052 26.72 44.74 26.942 44.536 27.098C44.344 27.254 44.134 27.47 43.906 27.746C43.678 28.01 43.522 28.28 43.438 28.556H49.288ZM55.5301 26.432V24.488H60.3721V26.432H55.5301ZM67.2652 30.5V17.72H74.8612V19.736H69.3712V23.03H73.6912V25.028H69.3712V30.5H67.2652ZM79.5982 30.68C78.3742 30.68 77.3422 30.224 76.5022 29.312C75.6742 28.4 75.2602 27.296 75.2602 26C75.2602 24.704 75.6742 23.6 76.5022 22.688C77.3422 21.776 78.3742 21.32 79.5982 21.32C80.2102 21.32 80.7742 21.458 81.2902 21.734C81.8062 21.998 82.2022 22.322 82.4782 22.706V21.5H84.4582V30.5H82.4782V29.294C82.2022 29.678 81.8062 30.008 81.2902 30.284C80.7742 30.548 80.2102 30.68 79.5982 30.68ZM78.0322 28.052C78.5362 28.604 79.1782 28.88 79.9582 28.88C80.7382 28.88 81.3802 28.604 81.8842 28.052C82.3882 27.5 82.6402 26.816 82.6402 26C82.6402 25.184 82.3882 24.5 81.8842 23.948C81.3802 23.396 80.7382 23.12 79.9582 23.12C79.1782 23.12 78.5362 23.396 78.0322 23.948C77.5282 24.5 77.2762 25.184 77.2762 26C77.2762 26.816 77.5282 27.5 78.0322 28.052ZM91.2446 30.68C89.8886 30.68 88.7546 30.236 87.8426 29.348C86.9426 28.448 86.4926 27.332 86.4926 26C86.4926 24.668 86.9426 23.558 87.8426 22.67C88.7546 21.77 89.8886 21.32 91.2446 21.32C92.1686 21.32 92.9966 21.542 93.7286 21.986C94.4726 22.43 95.0426 23.036 95.4386 23.804L93.7106 24.74C93.4826 24.26 93.1526 23.876 92.7206 23.588C92.2886 23.3 91.7966 23.156 91.2446 23.156C90.4526 23.156 89.7986 23.432 89.2826 23.984C88.7666 24.524 88.5086 25.196 88.5086 26C88.5086 26.804 88.7666 27.482 89.2826 28.034C89.7986 28.574 90.4526 28.844 91.2446 28.844C91.7966 28.844 92.2886 28.7 92.7206 28.412C93.1526 28.124 93.4826 27.74 93.7106 27.26L95.4386 28.196C95.0426 28.964 94.4726 29.57 93.7286 30.014C92.9966 30.458 92.1686 30.68 91.2446 30.68ZM101.154 30.59C100.242 30.59 99.498 30.338 98.922 29.834C98.358 29.318 98.076 28.574 98.076 27.602V23.264H96.204V21.5H98.076V18.998H100.056V21.5H102.63V23.264H100.056V27.278C100.056 27.83 100.176 28.226 100.416 28.466C100.656 28.694 101.04 28.808 101.568 28.808C102 28.808 102.354 28.748 102.63 28.628V30.392C102.198 30.524 101.706 30.59 101.154 30.59ZM111.801 29.33C110.901 30.23 109.785 30.68 108.453 30.68C107.121 30.68 105.999 30.23 105.087 29.33C104.187 28.418 103.737 27.308 103.737 26C103.737 24.692 104.187 23.588 105.087 22.688C105.999 21.776 107.121 21.32 108.453 21.32C109.785 21.32 110.901 21.776 111.801 22.688C112.713 23.588 113.169 24.692 113.169 26C113.169 27.308 112.713 28.418 111.801 29.33ZM108.453 28.844C109.233 28.844 109.875 28.574 110.379 28.034C110.895 27.482 111.153 26.804 111.153 26C111.153 25.196 110.895 24.524 110.379 23.984C109.875 23.432 109.233 23.156 108.453 23.156C107.661 23.156 107.007 23.432 106.491 23.984C105.987 24.524 105.735 25.196 105.735 26C105.735 26.804 105.987 27.482 106.491 28.034C107.007 28.574 107.661 28.844 108.453 28.844ZM115.16 30.5V21.5H117.14V23.102C117.308 22.598 117.614 22.19 118.058 21.878C118.514 21.566 119 21.41 119.516 21.41C119.828 21.41 120.086 21.434 120.29 21.482V23.516C120.002 23.408 119.672 23.354 119.3 23.354C118.7 23.354 118.19 23.6 117.77 24.092C117.35 24.572 117.14 25.244 117.14 26.108V30.5H115.16ZM123.955 30.5L129.535 17.72H131.371L136.951 30.5H134.755L133.297 27.152H127.573L126.133 30.5H123.955ZM130.435 20.564L128.383 25.28H132.487L130.435 20.564ZM141.357 30.68C140.325 30.68 139.509 30.338 138.909 29.654C138.309 28.958 138.009 28.034 138.009 26.882V21.5H139.989V26.558C139.989 27.278 140.145 27.848 140.457 28.268C140.769 28.676 141.213 28.88 141.789 28.88C142.461 28.88 142.995 28.628 143.391 28.124C143.787 27.608 143.985 26.876 143.985 25.928V21.5H145.965V30.5H143.985V29.276C143.457 30.212 142.581 30.68 141.357 30.68ZM152.535 30.59C151.623 30.59 150.879 30.338 150.303 29.834C149.739 29.318 149.457 28.574 149.457 27.602V23.264H147.585V21.5H149.457V18.998H151.437V21.5H154.011V23.264H151.437V27.278C151.437 27.83 151.557 28.226 151.797 28.466C152.037 28.694 152.421 28.808 152.949 28.808C153.381 28.808 153.735 28.748 154.011 28.628V30.392C153.579 30.524 153.087 30.59 152.535 30.59ZM157.869 30.5H155.889V17H157.869V22.724C158.433 21.788 159.345 21.32 160.605 21.32C161.649 21.32 162.483 21.662 163.107 22.346C163.731 23.03 164.043 23.942 164.043 25.082V30.5H162.063V25.406C162.063 24.686 161.895 24.128 161.559 23.732C161.223 23.324 160.767 23.12 160.191 23.12C159.507 23.12 158.949 23.378 158.517 23.894C158.085 24.41 157.869 25.136 157.869 26.072V30.5ZM170.644 30.68C169.276 30.68 168.148 30.242 167.26 29.366C166.384 28.49 165.946 27.368 165.946 26C165.946 24.668 166.39 23.558 167.278 22.67C168.166 21.77 169.288 21.32 170.644 21.32C171.892 21.32 172.924 21.716 173.74 22.508C174.568 23.3 174.982 24.392 174.982 25.784C174.982 26.024 174.976 26.24 174.964 26.432H167.89C167.938 27.164 168.22 27.758 168.736 28.214C169.252 28.658 169.894 28.88 170.662 28.88C171.814 28.88 172.672 28.424 173.236 27.512L174.748 28.592C173.884 29.984 172.516 30.68 170.644 30.68ZM167.98 24.992H172.984C172.876 24.368 172.594 23.882 172.138 23.534C171.694 23.174 171.172 22.994 170.572 22.994C169.948 22.994 169.39 23.168 168.898 23.516C168.418 23.864 168.112 24.356 167.98 24.992ZM177.018 30.5V21.5H178.998V22.724C179.562 21.788 180.474 21.32 181.734 21.32C182.778 21.32 183.612 21.662 184.236 22.346C184.86 23.03 185.172 23.942 185.172 25.082V30.5H183.192V25.406C183.192 24.686 183.024 24.128 182.688 23.732C182.352 23.324 181.896 23.12 181.32 23.12C180.636 23.12 180.078 23.378 179.646 23.894C179.214 24.41 178.998 25.136 178.998 26.072V30.5H177.018ZM191.506 30.59C190.594 30.59 189.85 30.338 189.274 29.834C188.71 29.318 188.428 28.574 188.428 27.602V23.264H186.556V21.5H188.428V18.998H190.408V21.5H192.982V23.264H190.408V27.278C190.408 27.83 190.528 28.226 190.768 28.466C191.008 28.694 191.392 28.808 191.92 28.808C192.352 28.808 192.706 28.748 192.982 28.628V30.392C192.55 30.524 192.058 30.59 191.506 30.59ZM195.849 19.538C195.489 19.538 195.177 19.412 194.913 19.16C194.649 18.896 194.517 18.578 194.517 18.206C194.517 17.846 194.649 17.54 194.913 17.288C195.177 17.024 195.489 16.892 195.849 16.892C196.221 16.892 196.533 17.024 196.785 17.288C197.037 17.54 197.163 17.846 197.163 18.206C197.163 18.578 197.037 18.896 196.785 19.16C196.533 19.412 196.221 19.538 195.849 19.538ZM194.859 30.5V21.5H196.839V30.5H194.859ZM203.604 30.68C202.248 30.68 201.114 30.236 200.202 29.348C199.302 28.448 198.852 27.332 198.852 26C198.852 24.668 199.302 23.558 200.202 22.67C201.114 21.77 202.248 21.32 203.604 21.32C204.528 21.32 205.356 21.542 206.088 21.986C206.832 22.43 207.402 23.036 207.798 23.804L206.07 24.74C205.842 24.26 205.512 23.876 205.08 23.588C204.648 23.3 204.156 23.156 203.604 23.156C202.812 23.156 202.158 23.432 201.642 23.984C201.126 24.524 200.868 25.196 200.868 26C200.868 26.804 201.126 27.482 201.642 28.034C202.158 28.574 202.812 28.844 203.604 28.844C204.156 28.844 204.648 28.7 205.08 28.412C205.512 28.124 205.842 27.74 206.07 27.26L207.798 28.196C207.402 28.964 206.832 29.57 206.088 30.014C205.356 30.458 204.528 30.68 203.604 30.68ZM213.297 30.68C212.073 30.68 211.041 30.224 210.201 29.312C209.373 28.4 208.959 27.296 208.959 26C208.959 24.704 209.373 23.6 210.201 22.688C211.041 21.776 212.073 21.32 213.297 21.32C213.909 21.32 214.473 21.458 214.989 21.734C215.505 21.998 215.901 22.322 216.177 22.706V21.5H218.157V30.5H216.177V29.294C215.901 29.678 215.505 30.008 214.989 30.284C214.473 30.548 213.909 30.68 213.297 30.68ZM211.731 28.052C212.235 28.604 212.877 28.88 213.657 28.88C214.437 28.88 215.079 28.604 215.583 28.052C216.087 27.5 216.339 26.816 216.339 26C216.339 25.184 216.087 24.5 215.583 23.948C215.079 23.396 214.437 23.12 213.657 23.12C212.877 23.12 212.235 23.396 211.731 23.948C211.227 24.5 210.975 25.184 210.975 26C210.975 26.816 211.227 27.5 211.731 28.052ZM224.746 30.59C223.834 30.59 223.09 30.338 222.514 29.834C221.95 29.318 221.668 28.574 221.668 27.602V23.264H219.796V21.5H221.668V18.998H223.648V21.5H226.222V23.264H223.648V27.278C223.648 27.83 223.768 28.226 224.008 28.466C224.248 28.694 224.632 28.808 225.16 28.808C225.592 28.808 225.946 28.748 226.222 28.628V30.392C225.79 30.524 225.298 30.59 224.746 30.59ZM229.09 19.538C228.73 19.538 228.418 19.412 228.154 19.16C227.89 18.896 227.758 18.578 227.758 18.206C227.758 17.846 227.89 17.54 228.154 17.288C228.418 17.024 228.73 16.892 229.09 16.892C229.462 16.892 229.774 17.024 230.026 17.288C230.278 17.54 230.404 17.846 230.404 18.206C230.404 18.578 230.278 18.896 230.026 19.16C229.774 19.412 229.462 19.538 229.09 19.538ZM228.1 30.5V21.5H230.08V30.5H228.1ZM240.156 29.33C239.256 30.23 238.14 30.68 236.808 30.68C235.476 30.68 234.354 30.23 233.442 29.33C232.542 28.418 232.092 27.308 232.092 26C232.092 24.692 232.542 23.588 233.442 22.688C234.354 21.776 235.476 21.32 236.808 21.32C238.14 21.32 239.256 21.776 240.156 22.688C241.068 23.588 241.524 24.692 241.524 26C241.524 27.308 241.068 28.418 240.156 29.33ZM236.808 28.844C237.588 28.844 238.23 28.574 238.734 28.034C239.25 27.482 239.508 26.804 239.508 26C239.508 25.196 239.25 24.524 238.734 23.984C238.23 23.432 237.588 23.156 236.808 23.156C236.016 23.156 235.362 23.432 234.846 23.984C234.342 24.524 234.09 25.196 234.09 26C234.09 26.804 234.342 27.482 234.846 28.034C235.362 28.574 236.016 28.844 236.808 28.844ZM243.516 30.5V21.5H245.496V22.724C246.06 21.788 246.972 21.32 248.232 21.32C249.276 21.32 250.11 21.662 250.734 22.346C251.358 23.03 251.67 23.942 251.67 25.082V30.5H249.69V25.406C249.69 24.686 249.522 24.128 249.186 23.732C248.85 23.324 248.394 23.12 247.818 23.12C247.134 23.12 246.576 23.378 246.144 23.894C245.712 24.41 245.496 25.136 245.496 26.072V30.5H243.516Z" fill="#27272A"/>
</svg>
