<svg width="24" height="24" viewBox="0 0 24 24" fill="none" xmlns="http://www.w3.org/2000/svg">
<path d="M21.6 20.5484C21.6838 20.6598 21.735 20.7924 21.7476 20.9313C21.7603 21.0702 21.734 21.2098 21.6716 21.3345C21.6093 21.4593 21.5134 21.5642 21.3948 21.6375C21.2762 21.7107 21.1394 21.7495 21 21.7493H3C2.86072 21.7493 2.72418 21.7106 2.6057 21.6373C2.48722 21.5641 2.39147 21.4593 2.32918 21.3348C2.26689 21.2102 2.24052 21.0707 2.25303 20.932C2.26554 20.7933 2.31643 20.6608 2.4 20.5493C3.06411 19.659 3.94971 18.9579 4.96875 18.5159C4.41017 18.0061 4.01878 17.3393 3.84595 16.6031C3.67313 15.8668 3.72695 15.0955 4.00034 14.3904C4.27374 13.6853 4.75394 13.0793 5.37791 12.652C6.00188 12.2247 6.74046 11.9961 7.49672 11.9961C8.25297 11.9961 8.99156 12.2247 9.61553 12.652C10.2395 13.0793 10.7197 13.6853 10.9931 14.3904C11.2665 15.0955 11.3203 15.8668 11.1475 16.6031C10.9747 17.3393 10.5833 18.0061 10.0247 18.5159C10.7599 18.8337 11.428 19.2883 11.9934 19.8556C12.5589 19.2883 13.227 18.8337 13.9622 18.5159C13.4036 18.0061 13.0122 17.3393 12.8394 16.6031C12.6666 15.8668 12.7204 15.0955 12.9938 14.3904C13.2672 13.6853 13.7474 13.0793 14.3713 12.652C14.9953 12.2247 15.7339 11.9961 16.4902 11.9961C17.2464 11.9961 17.985 12.2247 18.609 12.652C19.2329 13.0793 19.7131 13.6853 19.9865 14.3904C20.2599 15.0955 20.3137 15.8668 20.1409 16.6031C19.9681 17.3393 19.5767 18.0061 19.0181 18.5159C20.0419 18.9556 20.9322 19.6565 21.6 20.5484ZM2.55 11.8493C2.62879 11.9084 2.71845 11.9514 2.81386 11.9759C2.90927 12.0003 3.00856 12.0057 3.10607 11.9918C3.20357 11.9779 3.29737 11.9449 3.38212 11.8947C3.46687 11.8445 3.54091 11.7781 3.6 11.6993C4.05409 11.0939 4.64291 10.6025 5.31983 10.264C5.99675 9.92555 6.74318 9.74935 7.5 9.74935C8.25682 9.74935 9.00325 9.92555 9.68017 10.264C10.3571 10.6025 10.9459 11.0939 11.4 11.6993C11.4699 11.7925 11.5604 11.8681 11.6646 11.9202C11.7687 11.9722 11.8836 11.9993 12 11.9993C12.1164 11.9993 12.2313 11.9722 12.3354 11.9202C12.4396 11.8681 12.5301 11.7925 12.6 11.6993C13.0541 11.0939 13.6429 10.6025 14.3198 10.264C14.9968 9.92555 15.7432 9.74935 16.5 9.74935C17.2568 9.74935 18.0032 9.92555 18.6802 10.264C19.3571 10.6025 19.9459 11.0939 20.4 11.6993C20.4592 11.7781 20.5333 11.8445 20.6181 11.8947C20.7029 11.9448 20.7967 11.9778 20.8943 11.9917C20.9918 12.0056 21.0911 12.0001 21.1866 11.9756C21.282 11.9511 21.3717 11.908 21.4505 11.8489C21.5293 11.7897 21.5956 11.7156 21.6458 11.6308C21.6959 11.546 21.7289 11.4522 21.7428 11.3546C21.7567 11.2571 21.7512 11.1577 21.7267 11.0623C21.7022 10.9669 21.6592 10.8772 21.6 10.7984C20.9359 9.90828 20.0503 9.20755 19.0312 8.76591C19.5898 8.2561 19.9812 7.58931 20.154 6.85307C20.3269 6.11682 20.2731 5.34553 19.9997 4.64042C19.7263 3.93531 19.2461 3.32934 18.6221 2.90205C17.9981 2.47475 17.2595 2.24609 16.5033 2.24609C15.747 2.24609 15.0084 2.47475 14.3845 2.90205C13.7605 3.32934 13.2803 3.93531 13.0069 4.64042C12.7335 5.34553 12.6797 6.11682 12.8525 6.85307C13.0253 7.58931 13.4167 8.2561 13.9753 8.76591C13.2401 9.0837 12.572 9.53833 12.0066 10.1056C11.4411 9.53833 10.773 9.0837 10.0378 8.76591C10.5964 8.2561 10.9878 7.58931 11.1606 6.85307C11.3334 6.11682 11.2796 5.34553 11.0062 4.64042C10.7328 3.93531 10.2526 3.32934 9.62866 2.90205C9.00468 2.47475 8.2661 2.24609 7.50984 2.24609C6.75359 2.24609 6.015 2.47475 5.39103 2.90205C4.76706 3.32934 4.28686 3.93531 4.01347 4.64042C3.74007 5.34553 3.68625 6.11682 3.85908 6.85307C4.0319 7.58931 4.42329 8.2561 4.98188 8.76591C3.95805 9.20597 3.06774 9.90716 2.4 10.7993C2.34091 10.8781 2.29791 10.9678 2.27347 11.0632C2.24902 11.1586 2.24361 11.2579 2.25754 11.3554C2.27147 11.4529 2.30446 11.5467 2.35464 11.6315C2.40483 11.7162 2.47121 11.7903 2.55 11.8493Z" fill="#343330"/>
</svg>
